<svg width="146" height="46" viewBox="0 0 146 46" fill="none" xmlns="http://www.w3.org/2000/svg">
<path d="M17.2893 23.4366C17.1946 23.4366 17.1149 23.4391 17.0701 23.444C17.0177 23.5385 16.9405 23.6652 16.8259 23.8417C18.6097 23.8417 20.2291 23.9883 22.0204 24.3089L21.5147 24.796C19.8977 24.5102 18.5549 24.396 16.8433 24.396C16.5942 24.396 16.5419 24.396 16.4821 24.3984C16.4223 24.4878 16.2877 24.6618 16.1533 24.8234C16.3052 24.8135 16.5992 24.8085 17.0053 24.8085C18.4129 24.8085 19.7283 24.9128 21.1559 25.1415L20.6501 25.6311C19.5639 25.4621 18.236 25.3652 17.0451 25.3652C16.6216 25.3652 16.1408 25.3801 15.7098 25.4049C15.6126 25.5168 15.3585 25.7902 15.2813 25.8746C15.8518 25.815 16.4796 25.7877 17.227 25.7877C18.2908 25.7877 19.3073 25.8573 20.269 25.9989L19.7632 26.4835C19.0781 26.3991 18.246 26.3494 17.511 26.3494C15.6151 26.3494 14.1203 26.7594 12.5756 27.7013C14.048 29.277 16.4597 30.2736 18.7966 30.2736H19.0158L18.1987 31.0615C14.8278 30.4302 11.2801 28.9514 8.28302 26.9259C5.4005 24.9849 4.3915 24.4109 2.14181 23.4192L2.12687 22.8426L3.64909 23.4938L4.16729 23.0837L9.13754 25.3552L8.81365 25.6137L6.26252 24.5078L6.01088 24.7041L7.33632 25.4422C8.45496 26.0636 9.30696 26.3419 10.0943 26.3419C11.8158 26.3419 13.3604 25.1241 14.357 22.9843C15.1069 22.8873 15.9066 22.8426 16.8682 22.8426C18.8414 22.8426 20.7572 23.0315 22.9272 23.4366L22.3991 23.9461C21.0488 23.6652 18.7542 23.4366 17.2893 23.4366ZM12.4585 37.5902C5.9926 37.5902 0.747573 32.358 0.747573 25.9079C0.747573 19.4578 5.9926 14.2255 12.4585 14.2255C18.9244 14.2255 24.1695 19.4578 24.1695 25.9079C24.1695 32.358 18.9244 37.5902 12.4585 37.5902ZM12.4585 13.4799C5.56903 13.4799 0 19.0352 0 25.9079C0 32.7806 5.56903 38.3359 12.4585 38.3359C19.3481 38.3359 24.917 32.7806 24.917 25.9079C24.917 19.0352 19.3481 13.4799 12.4585 13.4799ZM45.3726 30.8555H52.5155V34.1933H41.5283V17.6225H45.3726V30.8555ZM61.1534 22.2624H64.7366V34.1933H61.367V32.8203C60.8686 33.7435 59.8483 34.5483 57.9735 34.5483C54.9124 34.5483 53.3224 33.1753 53.3224 29.2457V22.2624H56.9057V29.0799C56.9057 30.6661 57.594 31.3761 59.0415 31.3761C60.3466 31.3761 61.1534 30.6661 61.1534 29.0799V22.2624ZM67.4895 21.8127C67.4895 18.9247 69.3168 17.3858 72.1881 17.3858C73.1138 17.3858 73.7069 17.5279 73.7069 17.5279V20.4159C73.7069 20.4159 73.2086 20.3687 72.7813 20.3687C71.666 20.3687 71.0727 20.7474 71.0727 21.789V22.2624H73.7069V25.1741H71.0727V34.1933H67.4895V25.1741H65.686V22.2624H67.4895V21.8127ZM80.0188 22.2624H82.7478V25.1741H80.0188V29.8139C80.0188 31.0922 80.6833 31.4236 81.7276 31.4236C82.1548 31.4236 82.7478 31.3526 82.7478 31.3526V34.217C82.7478 34.217 81.9175 34.4062 81.0396 34.4062C78.1682 34.4062 76.4359 33.1043 76.4359 30.2164V25.1741H74.6322V22.2624H76.4359V18.7826H80.0188V22.2624ZM90.6812 21.9073C93.7191 21.9073 95.309 23.2802 95.309 27.2099V34.1933H91.7255V27.3755C91.7255 25.7896 91.0375 25.0795 89.5426 25.0795C88.1895 25.0795 87.3832 25.7896 87.3832 27.3755V34.1933H83.7997V17.6463H87.4066V23.4223C88.0237 22.5464 88.9965 21.9073 90.6812 21.9073ZM104.445 29.5534C104.445 30.8555 103.211 31.8261 101.313 31.8261C100.387 31.8261 99.8412 31.4 99.8412 30.595C99.8412 29.9796 100.221 29.4589 101.432 29.2932L103.496 29.009C103.852 28.9616 104.232 28.8907 104.445 28.8197V29.5534ZM102.452 21.9074C98.9159 21.9074 97.207 23.2567 97.0652 25.7896H100.553C100.601 25.1267 100.98 24.6296 102.452 24.6296C103.757 24.6296 104.374 25.0558 104.374 25.6948C104.374 26.2631 104.018 26.4761 103.14 26.5708L100.862 26.8074C97.7767 27.1388 96.3767 28.4172 96.3767 30.7372C96.3767 32.8913 97.7057 34.5483 100.53 34.5483C102.452 34.5483 103.591 33.9328 104.587 32.7018V34.1933H107.862V26.3577C107.862 23.0673 105.94 21.9074 102.452 21.9074ZM116.148 21.9073C119.257 21.9073 120.847 23.2802 120.847 27.2099V34.1933H117.263V27.3755C117.263 25.7896 116.575 25.0795 115.08 25.0795C113.727 25.0795 112.921 25.7896 112.921 27.3755V34.1933H109.337V22.2624H112.707V23.6355C113.206 22.7121 114.226 21.9073 116.148 21.9073ZM128.406 26.7127C131.443 27.1153 132.962 28.0621 132.962 30.5477C132.962 33.057 131.182 34.5484 127.409 34.5484C123.304 34.5484 121.856 32.9151 121.785 30.524H125.321C125.416 31.4 126.032 31.8261 127.409 31.8261C128.809 31.8261 129.378 31.4946 129.378 30.8318C129.378 30.2164 128.904 29.9324 127.67 29.7666L126.412 29.6008C123.778 29.2458 122.26 28.2279 122.26 25.8606C122.26 23.5881 123.944 21.9073 127.48 21.9073C130.755 21.9073 132.511 23.2093 132.677 25.7896H129.189C129.07 25.1032 128.69 24.677 127.48 24.677C126.294 24.677 125.843 25.0795 125.843 25.6004C125.843 26.121 126.128 26.4051 127.148 26.5472L128.406 26.7127ZM141.932 29.5537C141.932 30.8555 140.698 31.8261 138.8 31.8261C137.874 31.8261 137.328 31.4 137.328 30.595C137.328 29.9796 137.708 29.4589 138.918 29.2932L140.983 29.009C141.339 28.9618 141.718 28.8907 141.932 28.8197V29.5537ZM139.938 21.9074C136.403 21.9074 134.694 23.2567 134.552 25.7896H138.04C138.088 25.1267 138.467 24.6298 139.938 24.6298C141.244 24.6298 141.861 25.0558 141.861 25.695C141.861 26.2631 141.505 26.4761 140.627 26.5708L138.348 26.8074C135.264 27.139 133.864 28.4173 133.864 30.7372C133.864 32.8913 135.192 34.5483 138.016 34.5483C139.938 34.5483 141.078 33.9328 142.074 32.7018V34.1933H145.349V26.3577C145.349 23.0674 143.427 21.9074 139.938 21.9074Z" fill="black" fill-opacity="0.54"/>
</svg>
